<?xml version="1.0" encoding="UTF-8"?>
<svg width="444px" height="512px" viewBox="0 0 444 512" version="1.1" xmlns="http://www.w3.org/2000/svg" xmlns:xlink="http://www.w3.org/1999/xlink">
    <title>shopping-bag</title>
    <defs>
        <filter id="filter-1">
            <feColorMatrix in="SourceGraphic" type="matrix" values="0 0 0 0 1.000000 0 0 0 0 1.000000 0 0 0 0 1.000000 0 0 0 1.000000 0"></feColorMatrix>
        </filter>
    </defs>
    <g id="Page-1" stroke="none" stroke-width="1" fill="none" fill-rule="evenodd">
        <g id="shopping-bag" transform="translate(-352.000000, -531.000000)" filter="url(#filter-1)">
            <g transform="translate(352.000000, 531.000000)">
                <path d="M443.055391,495.171875 L404.141328,124.597656 C403.324922,116.839844 396.785859,110.949219 388.985078,110.949219 L315.844453,110.949219 L315.844453,94.273438 C315.844453,42.292969 273.551484,0 221.571015,0 C169.586641,0 127.293672,42.292969 127.293672,94.273438 L127.293672,110.949219 L54.153047,110.949219 C46.352265,110.949219 39.813203,116.839844 38.996797,124.597656 L0.0827341613,495.171875 C-0.366485039,499.464844 1.02804696,503.75 3.91476496,506.960938 C6.80539096,510.167969 10.922578,512 15.238984,512 L427.895234,512 C432.215547,512 436.332734,510.167969 439.219453,506.960938 C442.113984,503.75 443.504609,499.464844 443.055391,495.171875 Z M157.770234,94.273438 C157.770234,59.097656 186.391328,30.476562 221.571015,30.476562 C256.746797,30.476562 285.367891,59.097656 285.367891,94.273438 L285.367891,110.949219 L157.770234,110.949219 L157.770234,94.273438 Z M32.160859,481.523438 L67.875703,141.425781 L127.293672,141.425781 L127.293672,175.007812 C127.293672,183.421875 134.117891,190.246094 142.531953,190.246094 C150.946015,190.246094 157.770234,183.421875 157.770234,175.007812 L157.770234,141.425781 L285.367891,141.425781 L285.367891,175.007812 C285.367891,183.421875 292.192109,190.246094 300.606172,190.246094 C309.020234,190.246094 315.844453,183.421875 315.844453,175.007812 L315.844453,141.425781 L375.262422,141.425781 L410.977265,481.523438 L32.160859,481.523438 Z" id="Shape" fill="#000000" fill-rule="nonzero"></path>
            </g>
        </g>
    </g>
</svg>