<?xml version="1.0" encoding="UTF-8"?>
<svg width="171px" height="202px" viewBox="0 0 171 202" version="1.1" xmlns="http://www.w3.org/2000/svg" xmlns:xlink="http://www.w3.org/1999/xlink">
    <title>shopping-bag</title>
    <defs>
        <filter id="filter-1">
            <feColorMatrix in="SourceGraphic" type="matrix" values="0 0 0 0 1.000000 0 0 0 0 1.000000 0 0 0 0 1.000000 0 0 0 1.000000 0"></feColorMatrix>
        </filter>
    </defs>
    <g id="Page-1" stroke="none" stroke-width="1" fill="none" fill-rule="evenodd">
        <g filter="url(#filter-1)" id="shopping-bag">
            <g>
                <path d="M114.054496,24.885 C112.030496,10.699 99.6824961,0 85.3334961,0 C76.1054961,0 67.3414961,4.453 61.8924961,11.916 C60.7794961,13.438 61.1124961,15.573 62.6344961,16.686 C64.1514961,17.795 66.2914961,17.466 67.4024961,15.942 C71.5734961,10.235 78.2754961,6.827 85.3324961,6.827 C96.3064961,6.827 105.747496,15.005 107.295496,25.848 C107.539496,27.551 109.000496,28.78 110.671496,28.78 C110.830496,28.78 110.994496,28.768 111.157496,28.746 C113.023496,28.479 114.320496,26.75 114.054496,24.885 Z" id="Path" fill="#000000" fill-rule="nonzero"></path>
                <path d="M163.353496,63.096 L153.113496,46.029 C152.497496,45 151.386496,44.372 150.186496,44.372 L140.373496,44.372 C138.489496,44.372 136.960496,45.901 136.960496,47.785 C136.960496,49.669 138.489496,51.198 140.373496,51.198 L148.254496,51.198 L154.398496,61.438 L16.2674961,61.438 L22.4114961,51.198 L26.0264961,51.198 C27.9104961,51.198 29.4394961,49.669 29.4394961,47.785 C29.4394961,45.901 27.9104961,44.372 26.0264961,44.372 L20.4794961,44.372 C19.2794961,44.372 18.1684961,45 17.5524961,46.029 L7.3124961,63.096 C6.6794961,64.152 6.6644961,65.465 7.2694961,66.535 C7.8744961,67.605 9.0084961,68.267 10.2394961,68.267 L160.426496,68.267 C161.657496,68.267 162.790496,67.605 163.396496,66.535 C164.002496,65.465 163.986496,64.15 163.353496,63.096 Z" id="Path" fill="#000000" fill-rule="nonzero"></path>
                <path d="M146.339496,31.623 C145.861496,30.852 145.098496,30.305 144.216496,30.099 L97.6854961,19.216 C96.8044961,19.009 95.8764961,19.163 95.1064961,19.639 C94.3384961,20.117 93.7904961,20.88 93.5844961,21.762 L90.0754961,36.762 C89.6454961,38.597 90.7854961,40.433 92.6214961,40.861 C94.4564961,41.291 96.2944961,40.151 96.7224961,38.315 L99.4544961,26.64 L139.337496,35.969 L133.070496,62.764 C132.640496,64.599 133.780496,66.435 135.616496,66.863 C135.879496,66.924 136.140496,66.953 136.398496,66.953 C137.948496,66.953 139.351496,65.891 139.716496,64.318 L146.761496,34.2 C146.969496,33.319 146.817496,32.391 146.339496,31.623 Z" id="Path" fill="#000000" fill-rule="nonzero"></path>
                <path d="M87.1384961,39.692 L84.0284961,13.387 C83.9224961,12.488 83.4634961,11.667 82.7514961,11.107 C82.0394961,10.547 81.1404961,10.291 80.2374961,10.397 L23.1474961,17.145 C21.2764961,17.367 19.9384961,19.063 20.1594961,20.936 L25.3444961,64.809 C25.5504961,66.546 27.0234961,67.823 28.7304961,67.823 C28.8634961,67.823 29.0004961,67.814 29.1364961,67.799 C31.0064961,67.577 32.3444961,65.881 32.1244961,64.008 L27.3394961,23.522 L77.6504961,17.576 L80.3584961,40.491 C80.5804961,42.363 82.2684961,43.693 84.1494961,43.481 C86.0204961,43.261 87.3584961,41.564 87.1384961,39.692 Z" id="Path" fill="#000000" fill-rule="nonzero"></path>
                <path d="M114.133496,63.556 L107.358496,35.382 C107.146496,34.503 106.593496,33.742 105.822496,33.269 C105.051496,32.8 104.126496,32.653 103.241496,32.863 L48.2544961,46.087 C46.4214961,46.527 45.2934961,48.371 45.7334961,50.204 L49.1194961,64.286 C49.5594961,66.121 51.4034961,67.25 53.2354961,66.807 C55.0684961,66.367 56.1964961,64.523 55.7564961,62.69 L53.1674961,51.926 L101.517496,40.3 L107.494496,65.154 C107.869496,66.719 109.269496,67.769 110.810496,67.769 C111.075496,67.769 111.343496,67.738 111.612496,67.673 C113.445496,67.232 114.573496,65.389 114.133496,63.556 Z" id="Path" fill="#FFFFFF" fill-rule="nonzero"></path>
                <path d="M163.838496,64.679 C163.744496,62.865 162.246496,61.441 160.428496,61.441 L10.2414961,61.441 C8.4234961,61.441 6.9254961,62.864 6.8314961,64.679 L0.00449610144,197.799 C-0.0435038986,198.733 0.294496101,199.647 0.938496101,200.325 C1.5834961,201.002 2.4774961,201.387 3.4134961,201.387 L167.253496,201.387 C168.188496,201.387 169.083496,201.003 169.731496,200.325 C170.374496,199.647 170.712496,198.734 170.665496,197.799 L163.838496,64.679 Z M7.0054961,194.56 L13.4824961,68.267 L157.183496,68.267 L163.660496,194.56 L7.0054961,194.56 Z" id="Shape" fill="#FFFFFF" fill-rule="nonzero"></path>
                <path d="M110.933496,75.093 C105.286496,75.093 100.693496,79.686 100.693496,85.333 C100.693496,90.98 105.286496,95.573 110.933496,95.573 C116.580496,95.573 121.173496,90.98 121.173496,85.333 C121.173496,79.686 116.580496,75.093 110.933496,75.093 Z M110.933496,88.747 C109.050496,88.747 107.520496,87.216 107.520496,85.334 C107.520496,83.452 109.051496,81.921 110.933496,81.921 C112.815496,81.921 114.346496,83.452 114.346496,85.334 C114.346496,87.216 112.815496,88.747 110.933496,88.747 Z" id="Shape" fill="#FFFFFF" fill-rule="nonzero"></path>
                <path d="M59.7334961,75.093 C54.0864961,75.093 49.4934961,79.686 49.4934961,85.333 C49.4934961,90.98 54.0864961,95.573 59.7334961,95.573 C65.3804961,95.573 69.9734961,90.98 69.9734961,85.333 C69.9734961,79.686 65.3804961,75.093 59.7334961,75.093 Z M59.7334961,88.747 C57.8514961,88.747 56.3204961,87.216 56.3204961,85.334 C56.3204961,83.452 57.8514961,81.921 59.7334961,81.921 C61.6154961,81.921 63.1464961,83.452 63.1464961,85.334 C63.1464961,87.216 61.6154961,88.747 59.7334961,88.747 Z" id="Shape" fill="#FFFFFF" fill-rule="nonzero"></path>
                <path d="M110.933496,85.333 L110.670496,85.333 C108.786496,85.333 107.257496,86.862 107.257496,88.746 C107.257496,89.212 107.349496,89.657 107.520496,90.062 L107.520496,107.519 C107.520496,119.752 97.5674961,129.706 85.3334961,129.706 C73.0994961,129.706 63.1464961,119.753 63.1464961,107.519 L63.1464961,88.747 C63.1464961,86.863 61.6174961,85.334 59.7334961,85.334 C57.8494961,85.334 56.3204961,86.863 56.3204961,88.747 L56.3204961,107.52 C56.3204961,123.518 69.3354961,136.533 85.3334961,136.533 C101.331496,136.533 114.346496,123.518 114.346496,107.52 L114.346496,88.747 C114.346496,86.863 112.817496,85.333 110.933496,85.333 Z" id="Path" fill="#FFFFFF" fill-rule="nonzero"></path>
            </g>
        </g>
    </g>
</svg>